<svg
  width="16"
  height="16"
  viewBox="0 0 16 16"
  fill="none"
  xmlns="http://www.w3.org/2000/svg"
>
  <path
    fill-rule="evenodd"
    clip-rule="evenodd"
    d="M1.16675 3.33333C0.890606 3.33333 0.666748 3.55719 0.666748 3.83333V11.5C0.666748 11.7761 0.890606 12 1.16675 12H2.79336C2.85758 12.8841 3.59503 13.5823 4.49666 13.5823C5.3983 13.5823 6.13574 12.8841 6.19996 12H9.66675L9.66942 12H10.5753C10.6396 12.8843 11.3779 13.5823 12.2786 13.5823C13.1802 13.5823 13.9176 12.8841 13.9819 12H15.1308C15.2948 12 15.4483 11.9196 15.5417 11.7848C15.6352 11.65 15.6565 11.478 15.599 11.3245L13.4539 5.60225C13.3807 5.40708 13.1941 5.27777 12.9857 5.27777H10.1667V3.83333C10.1667 3.55719 9.94289 3.33333 9.66675 3.33333H1.16675ZM13.7458 11H14.4094L12.6391 6.27777H10.1667V11H10.8115C11.1097 10.501 11.6552 10.1667 12.2786 10.1667C12.9025 10.1667 13.4478 10.501 13.7458 11ZM4.49666 10.1667C3.87271 10.1667 3.32739 10.501 3.02939 11H1.66675V4.33333H9.16675V11H5.96393C5.66593 10.501 5.12061 10.1667 4.49666 10.1667ZM4.49666 11.1667C4.10549 11.1667 3.78882 11.4837 3.78882 11.8745C3.78882 12.2653 4.10549 12.5823 4.49666 12.5823C4.88784 12.5823 5.2045 12.2653 5.2045 11.8745C5.2045 11.4837 4.88784 11.1667 4.49666 11.1667ZM11.5707 11.8745C11.5707 11.4839 11.888 11.1667 12.2786 11.1667C12.6697 11.1667 12.9864 11.4837 12.9864 11.8745C12.9864 12.2653 12.6697 12.5823 12.2786 12.5823C11.888 12.5823 11.5707 12.2651 11.5707 11.8745Z"
    fill="#26AA99"
  />
</svg>
