<svg width="91" height="18" viewBox="0 0 91 18" fill="none" xmlns="http://www.w3.org/2000/svg">
<path fill-rule="evenodd" clip-rule="evenodd" d="M16.8501 0H11.6501L7.25008 8.8L10.8501 10L10.0501 18L17.6501 6.4L14.0501 5.2L16.8501 0ZM2.81455 14.7773H0V3.12816H7.0444V5.57204H2.81455V8.01593H6.32066V10.4598H2.81455V14.7773ZM24.4017 14.7773L23.694 12.3335H20.1075L19.4159 14.7773H16.5209L20.4291 3.12816H23.3884L27.2966 14.7773H24.4017ZM21.9249 5.78385H21.8927C21.8927 5.78385 21.6354 7.05467 21.4263 7.78783L20.7669 10.0525H23.0346L22.3913 7.78783C22.1822 7.05467 21.9249 5.78385 21.9249 5.78385ZM31.7499 14.9729C29.0479 14.9729 27.5522 13.311 27.5522 13.311L29.0318 11.1441C29.0318 11.1441 30.3345 12.3498 31.782 12.3498C32.361 12.3498 32.9883 12.1217 32.9883 11.4211C32.9883 10.8902 32.2273 10.5701 31.2888 10.1752C29.779 9.53984 27.8095 8.71113 27.8095 6.50072C27.8095 4.3501 29.5947 2.93265 31.8785 2.93265C34.3553 2.93265 35.5776 4.25235 35.5776 4.25235L34.3875 6.58218C34.3875 6.58218 33.2295 5.55575 31.8464 5.55575C31.2674 5.55575 30.624 5.81643 30.624 6.46814C30.624 7.03546 31.3993 7.34426 32.3498 7.72292C33.8561 8.32296 35.8028 9.0984 35.8028 11.3559C35.8028 13.2947 34.3392 14.9729 31.7499 14.9729ZM37.5541 14.7773H40.3686V10.2154H44.5502V14.7773H47.3648V3.12816H44.5502V7.78783H40.3686V3.12816H37.5541V14.7773ZM57.7287 15.0231C55.0306 15.0231 53.537 13.3613 53.537 13.3613L55.0145 11.1944C55.0145 11.1944 56.3154 12.4 57.7608 12.4C58.339 12.4 58.9653 12.1719 58.9653 11.4713C58.9653 10.9405 58.2055 10.6203 57.2683 10.2254C55.7606 9.59009 53.7939 8.76138 53.7939 6.55097C53.7939 4.40035 55.5766 2.9829 57.8572 2.9829C60.3304 2.9829 61.551 4.3026 61.551 4.3026L60.3625 6.63243C60.3625 6.63243 59.2062 5.606 57.825 5.606C57.2469 5.606 56.6045 5.86668 56.6045 6.51838C56.6045 7.08571 57.3786 7.39451 58.3278 7.77317C59.832 8.37321 61.7758 9.14865 61.7758 11.4062C61.7758 13.345 60.3144 15.0231 57.7287 15.0231ZM69.343 12.3835L70.0507 14.8274H72.9456L70.9915 9.00282L69.0374 3.17822H66.0781L64.1241 9.00282L62.17 14.8274H65.0649L65.7565 12.3835H69.343ZM67.5417 5.83391H67.5739C67.5739 5.83391 67.8312 7.10473 68.0403 7.8379L68.6836 10.1026H66.4159L67.0753 7.8379C67.2844 7.10473 67.5417 5.83391 67.5417 5.83391ZM74.1092 3.20184V14.763H81.6795V12.4222H76.8374V3.20184H74.1092ZM90.198 3.24304V5.50108H85.3088V7.8675L89.2355 7.88556V10.1436H85.3454V12.51H90.4524V14.8042H82.7999V3.24304H90.198Z" fill="white"/>
<path d="M16.8501 0H11.65L7.25 8.8L10.85 10L10.05 18L17.6501 6.4L14.0501 5.2L16.8501 0Z" fill="#FFCA11"/>
</svg>
