<svg
  width="16"
  height="16"
  viewBox="0 0 16 16"
  fill="none"
  xmlns="http://www.w3.org/2000/svg"
>
  <rect width="16" height="16" fill="white" />
  <mask id="path-2-inside-1_8305_40658" fill="white">
    <path
      fill-rule="evenodd"
      clip-rule="evenodd"
      d="M3.05837 10.4228C3.0545 10.416 3.05117 10.4096 3.04771 10.4026C1.94505 8.15553 1.96146 4.91825 2.01167 3.71864C2.02277 3.45338 2.24756 3.25537 2.51305 3.25476C5.96852 3.24687 7.95256 2.02758 7.99642 2.00036C7.99647 2.00033 7.99646 2.0003 7.99646 2.00024V2.00021C7.99646 2.00007 7.99654 1.99995 7.99665 2.00002C7.99671 2.00006 7.99691 2.00006 7.99697 2.00002C7.99708 1.99995 7.99716 2.00007 7.99716 2.00021V2.00024C7.99716 2.0003 7.99714 2.00033 7.9972 2.00036C8.04105 2.02758 10.025 3.24687 13.4804 3.25476C13.7459 3.25537 13.9707 3.45338 13.9818 3.71864C14.032 4.91825 14.0484 8.15553 12.9458 10.4026C12.9423 10.4096 12.939 10.416 12.9351 10.4228C12.8738 10.5312 12.3035 11.5151 11.4813 12.1545C11.4802 12.1554 11.48 12.1555 11.4789 12.1564C11.4439 12.1829 10.2136 13.1119 7.99725 14.0768C7.9972 14.0768 7.99716 14.0768 7.99716 14.0769C7.99716 14.077 7.99706 14.0771 7.99696 14.077C7.99694 14.077 7.99691 14.077 7.99689 14.077C7.99684 14.077 7.99678 14.077 7.99673 14.077C7.9967 14.077 7.99668 14.077 7.99665 14.077C7.99656 14.0771 7.99646 14.077 7.99646 14.0769C7.99646 14.0768 7.99642 14.0768 7.99637 14.0768C5.77993 13.1119 4.54956 12.1829 4.51458 12.1564C4.51347 12.1555 4.51326 12.1554 4.51216 12.1545C3.69002 11.5151 3.11973 10.5312 3.05837 10.4228Z"
    />
  </mask>
  <path
    d="M4.51458 12.1564L5.11928 11.3599L4.51458 12.1564ZM4.51216 12.1545L3.89824 12.9439L4.51216 12.1545ZM7.99637 14.0768L8.39549 13.1599L7.99637 14.0768ZM7.99665 14.077L8.3942 14.9946L7.99665 14.077ZM7.99689 14.077L7.59842 14.9942L7.99689 14.077ZM7.99673 14.077L8.3952 14.9942L7.99673 14.077ZM7.99696 14.077L8.39451 13.1594L7.99696 14.077ZM7.99725 14.0768L7.5981 13.1599L7.99725 14.0768ZM11.4813 12.1545L10.8674 11.3652L11.4813 12.1545ZM11.4789 12.1564L12.0836 12.9528L11.4789 12.1564ZM12.9458 10.4026L13.8435 10.8431L12.9458 10.4026ZM12.9351 10.4228L12.065 9.92994L12.9351 10.4228ZM13.9818 3.71864L14.981 3.67682L13.9818 3.71864ZM7.9972 2.00036L8.5245 1.15068L7.9972 2.00036ZM7.99642 2.00036L8.52371 2.85005L7.99642 2.00036ZM3.04771 10.4026L2.14997 10.8431L3.04771 10.4026ZM3.05837 10.4228L3.92846 9.92994L3.05837 10.4228ZM1.01254 3.67682C0.986235 4.30532 0.96858 5.46601 1.1026 6.77005C1.23523 8.06058 1.52336 9.56616 2.14997 10.8431L3.94544 9.96202C3.4694 8.99192 3.2144 7.75536 3.09212 6.56558C2.97123 5.38932 2.98689 4.33157 3.01079 3.76045L1.01254 3.67682ZM7.46913 1.15067C7.53112 1.1122 5.72792 2.24742 2.51076 2.25476L2.51533 4.25476C6.20912 4.24633 8.374 2.94295 8.52371 2.85005L7.46913 1.15067ZM6.99646 2.00021V2.00024H8.99646V2.00021H6.99646ZM8.99716 2.00024V2.00021H6.99716V2.00024H8.99716ZM13.4827 2.25476C10.2656 2.24742 8.4625 1.11221 8.5245 1.15068L7.46989 2.85004C7.6196 2.94295 9.78437 4.24633 13.4782 4.25476L13.4827 2.25476ZM13.8435 10.8431C14.4701 9.56616 14.7583 8.06058 14.8909 6.77005C15.0249 5.46601 15.0073 4.30532 14.981 3.67682L12.9827 3.76045C13.0066 4.33157 13.0223 5.38932 12.9014 6.56558C12.7791 7.75536 12.5241 8.99192 12.048 9.96202L13.8435 10.8431ZM12.0953 12.9439C13.0848 12.1742 13.7358 11.0382 13.8052 10.9157L12.065 9.92994C12.0117 10.0241 11.5221 10.856 10.8674 11.3652L12.0953 12.9439ZM8.39639 14.9937C10.7019 13.99 12.0009 13.0157 12.0836 12.9528L10.8742 11.3599C10.887 11.3502 9.72524 12.2339 7.5981 13.1599L8.39639 14.9937ZM7.59842 14.9942C7.59892 14.9944 7.59931 14.9946 7.59942 14.9946L8.39451 13.1594L8.39535 13.1598L7.59842 14.9942ZM8.3942 14.9946C8.3943 14.9946 8.3947 14.9944 8.3952 14.9942L7.59826 13.1598L7.59911 13.1594L8.3942 14.9946ZM3.90987 12.9528C3.99263 13.0157 5.29163 13.99 7.59724 14.9937L8.39549 13.1599C6.26824 12.2339 5.10648 11.3502 5.11928 11.3599L3.90987 12.9528ZM2.18828 10.9157C2.25767 11.0382 2.90865 12.1742 3.89824 12.9439L5.12609 11.3652C4.4714 10.856 3.98179 10.0241 3.92846 9.92994L2.18828 10.9157ZM5.11928 11.3599C5.1206 11.3609 5.123 11.3628 5.12595 11.3651C5.12697 11.3658 5.12778 11.3665 5.12756 11.3663C5.12749 11.3663 5.12684 11.3657 5.12609 11.3652L3.89824 12.9439C3.89804 12.9437 3.89782 12.9436 3.89814 12.9438C3.8983 12.9439 3.89943 12.9448 3.90078 12.9459C3.90439 12.9487 3.90745 12.951 3.90987 12.9528L5.11928 11.3599ZM8.99646 14.0769C8.99646 13.6675 8.7499 13.3141 8.39549 13.1599L7.59724 14.9937C7.24294 14.8394 6.99646 14.4862 6.99646 14.0769H8.99646ZM7.59911 13.1594C8.25791 12.874 8.99646 13.3558 8.99646 14.0769H6.99646C6.99646 14.7981 7.73521 15.2801 8.3942 14.9946L7.59911 13.1594ZM8.39535 13.1598C8.14113 13.0494 7.85248 13.0494 7.59826 13.1598L8.3952 14.9942C8.14108 15.1046 7.85254 15.1046 7.59842 14.9942L8.39535 13.1598ZM6.99716 14.0769C6.99716 13.3558 7.73571 12.874 8.39451 13.1594L7.59942 14.9946C8.2584 15.2801 8.99716 14.7981 8.99716 14.0769H6.99716ZM7.5981 13.1599C7.24156 13.3151 6.99716 13.6698 6.99716 14.0769H8.99716C8.99716 14.4839 8.75283 14.8385 8.39639 14.9937L7.5981 13.1599ZM10.8674 11.3652C10.8667 11.3657 10.866 11.3663 10.8659 11.3663C10.8657 11.3665 10.8665 11.3658 10.8675 11.3651C10.8705 11.3628 10.8729 11.3609 10.8742 11.3599L12.0836 12.9528C12.086 12.951 12.0891 12.9487 12.0927 12.9459C12.0941 12.9448 12.0952 12.9439 12.0954 12.9438C12.0957 12.9436 12.0955 12.9437 12.0953 12.9439L10.8674 11.3652ZM12.048 9.96202C12.0515 9.95496 12.0574 9.94347 12.065 9.92994L13.8052 10.9157C13.8206 10.8886 13.8331 10.8642 13.8435 10.8431L12.048 9.96202ZM13.4782 4.25476C13.2581 4.25426 12.996 4.07805 12.9827 3.76045L14.981 3.67682C14.9455 2.8287 14.2338 2.25648 13.4827 2.25476L13.4782 4.25476ZM6.99716 2.00024C6.99716 1.95596 7.00068 1.91561 6.99982 1.92738C6.99975 1.92835 6.99809 1.94966 6.99745 1.97628C6.99678 2.00424 6.99671 2.05309 7.00358 2.11347C7.01926 2.25115 7.06786 2.41897 7.18208 2.57967C7.28494 2.72439 7.40229 2.80808 7.46989 2.85004L8.5245 1.15068C8.59208 1.19262 8.70941 1.2763 8.81226 1.421C8.92647 1.58169 8.97506 1.74949 8.99074 1.88715C8.99761 1.94752 8.99754 1.99636 8.99687 2.02431C8.99623 2.05092 8.99457 2.07222 8.9945 2.07317C8.99364 2.08492 8.99716 2.04454 8.99716 2.00024H6.99716ZM8.52605 2.84859C8.36641 2.94812 8.12612 3.03258 7.84174 2.98787C7.56328 2.94409 7.36633 2.79585 7.24911 2.66374C7.03913 2.4271 6.99716 2.16188 6.99716 2.00021H8.99716C8.99716 1.8384 8.95515 1.57306 8.7451 1.33633C8.62785 1.20419 8.43086 1.05592 8.15235 1.01213C7.86792 0.967418 7.62758 1.05188 7.46789 1.15145L8.52605 2.84859ZM7.46757 2.84859C7.6488 2.96159 7.81945 2.9845 7.84352 2.98824C7.90444 2.99768 7.95696 3.00005 7.99681 3.00005C8.03666 3.00005 8.08918 2.99768 8.1501 2.98824C8.17417 2.9845 8.34482 2.96159 8.52605 2.84859L7.46789 1.15145C7.57418 1.08518 7.66889 1.05416 7.71474 1.04068C7.76799 1.02501 7.81308 1.01659 7.84371 1.01184C7.90457 1.00241 7.95702 1.00005 7.99681 1.00005C8.03659 1.00005 8.08905 1.00241 8.14991 1.01184C8.18054 1.01659 8.22563 1.02501 8.27888 1.04068C8.32472 1.05416 8.41944 1.08518 8.52573 1.15145L7.46757 2.84859ZM8.99646 2.00021C8.99646 2.16188 8.95448 2.4271 8.74451 2.66374C8.62729 2.79585 8.43034 2.94409 8.15188 2.98787C7.86749 3.03258 7.6272 2.94812 7.46757 2.84859L8.52573 1.15145C8.36604 1.05188 8.1257 0.967418 7.84127 1.01213C7.56276 1.05592 7.36577 1.20419 7.24851 1.33633C7.03847 1.57306 6.99646 1.8384 6.99646 2.00021H8.99646ZM8.52371 2.85005C8.59132 2.80809 8.70863 2.72442 8.81146 2.57978C8.92564 2.41918 8.97427 2.25147 8.99 2.11381C8.99689 2.05344 8.99684 2.00459 8.99618 1.97661C8.99555 1.94995 8.99389 1.92863 8.99381 1.92761C8.99295 1.91574 8.99646 1.95607 8.99646 2.00024H6.99646C6.99646 2.04444 6.99996 2.08479 6.9991 2.07294C6.99903 2.07194 6.99737 2.05063 6.99674 2.02398C6.99608 1.99601 6.99602 1.94717 7.00292 1.8868C7.01864 1.74917 7.06727 1.58147 7.18144 1.42089C7.28426 1.27627 7.40154 1.19262 7.46913 1.15067L8.52371 2.85005ZM2.14997 10.8431C2.16035 10.8642 2.17288 10.8886 2.18828 10.9157L3.92846 9.92994C3.93612 9.94347 3.94198 9.95496 3.94544 9.96202L2.14997 10.8431ZM3.01079 3.76045C2.9975 4.07805 2.73539 4.25426 2.51533 4.25476L2.51076 2.25476C1.75973 2.25648 1.04804 2.8287 1.01254 3.67682L3.01079 3.76045Z"
    fill="#d0011b"
    mask="url(#path-2-inside-1_8305_40658)"
  />
  <path
    d="M5.25 7.75L6.89645 9.39645C7.09171 9.59171 7.40829 9.59171 7.60355 9.39645L10.75 6.25"
    stroke="#d0011b"
    stroke-linecap="round"
  />
</svg>
